<svg xmlns="http://www.w3.org/2000/svg" viewBox="0 0 1600 900" role="img" aria-labelledby="title desc"><title id="title">Spirit &amp; Life library at night</title><desc id="desc">A dark, warm study library with shelves of books, an open Bible and a brass reading lamp.</desc><defs><linearGradient id="bg" x1="0" y1="0" x2="1" y2="1"><stop stop-color="#070b0d"/><stop offset=".58" stop-color="#111315"/><stop offset="1" stop-color="#21180f"/></linearGradient><radialGradient id="lamp" cx="78%" cy="40%" r="38%"><stop stop-color="#d89a42" stop-opacity=".34"/><stop offset="1" stop-color="#d89a42" stop-opacity="0"/></radialGradient><linearGradient id="wood" x1="0" x2="1"><stop stop-color="#21150d"/><stop offset=".5" stop-color="#4a2e18"/><stop offset="1" stop-color="#1b120c"/></linearGradient><linearGradient id="gold" x1="0" x2="1"><stop stop-color="#8c5b22"/><stop offset=".5" stop-color="#e0a64f"/><stop offset="1" stop-color="#6d4518"/></linearGradient><filter id="blur"><feGaussianBlur stdDeviation="28"/></filter></defs><rect width="1600" height="900" fill="url(#bg)"/><rect width="1600" height="900" fill="url(#lamp)"/><g opacity=".82"><rect x="70" y="100" width="1080" height="510" rx="10" fill="#0b0d0e" stroke="#49311b" stroke-width="3"/><g fill="url(#wood)"><rect x="100" y="130" width="1020" height="18"/><rect x="100" y="285" width="1020" height="18"/><rect x="100" y="440" width="1020" height="18"/><rect x="100" y="595" width="1020" height="18"/></g><g stroke="#6d451d" stroke-width="2" opacity=".55"><path d="M105 148v137M205 148v137M315 148v137M425 148v137M535 148v137M645 148v137M755 148v137M865 148v137M975 148v137M1085 148v137"/><path d="M105 303v137M205 303v137M315 303v137M425 303v137M535 303v137M645 303v137M755 303v137M865 303v137M975 303v137M1085 303v137"/><path d="M105 458v137M205 458v137M315 458v137M425 458v137M535 458v137M645 458v137M755 458v137M865 458v137M975 458v137M1085 458v137"/></g><g fill="#6b3e25"><rect x="125" y="166" width="32" height="102"/><rect x="176" y="176" width="27" height="92"/><rect x="226" y="158" width="39" height="110"/><rect x="282" y="171" width="31" height="97"/><rect x="342" y="154" width="45" height="114"/><rect x="407" y="181" width="25" height="87"/><rect x="465" y="164" width="34" height="104"/><rect x="520" y="176" width="43" height="92"/><rect x="584" y="154" width="28" height="114"/><rect x="638" y="170" width="44" height="98"/><rect x="703" y="159" width="32" height="109"/><rect x="758" y="180" width="36" height="88"/><rect x="816" y="155" width="45" height="113"/><rect x="880" y="173" width="29" height="95"/><rect x="936" y="161" width="39" height="107"/><rect x="998" y="180" width="34" height="88"/><rect x="1050" y="158" width="42" height="110"/></g><g fill="#9a6b35"><rect x="137" y="319" width="30" height="105"/><rect x="187" y="332" width="38" height="92"/><rect x="247" y="315" width="28" height="109"/><rect x="299" y="344" width="45" height="80"/><rect x="368" y="320" width="31" height="104"/><rect x="421" y="337" width="39" height="87"/><rect x="484" y="314" width="32" height="110"/><rect x="538" y="330" width="44" height="94"/><rect x="605" y="318" width="28" height="106"/><rect x="655" y="342" width="39" height="82"/><rect x="716" y="314" width="43" height="110"/><rect x="782" y="332" width="29" height="92"/><rect x="833" y="319" width="38" height="105"/><rect x="895" y="344" width="34" height="80"/><rect x="950" y="314" width="45" height="110"/><rect x="1015" y="330" width="31" height="94"/><rect x="1060" y="316" width="39" height="108"/></g></g><ellipse cx="1040" cy="690" rx="510" ry="95" fill="#000" opacity=".45" filter="url(#blur)"/><path d="M520 680 Q800 610 1080 680 L1015 800 Q800 845 585 800Z" fill="#2b1b11" stroke="#68441f" stroke-width="4"/><path d="M800 642 L800 790" stroke="#b98438" stroke-width="3" opacity=".7"/><path d="M550 680 Q670 632 800 660 L800 782 Q670 760 585 792Z" fill="#e7d7ad"/><path d="M1050 680 Q930 632 800 660 L800 782 Q930 760 1015 792Z" fill="#d8c79e"/><g stroke="#806c4b" stroke-width="3" opacity=".55"><path d="M585 700 Q690 670 780 690M585 728 Q690 698 780 718M585 756 Q690 726 780 746M815 690 Q910 670 1010 700M815 718 Q910 698 1010 728M815 746 Q910 726 1010 756"/></g><g transform="translate(1050 300)"><path d="M70 310V75" stroke="#b4874c" stroke-width="8"/><path d="M35 78 Q70 45 105 78 L92 108 Q70 120 48 108Z" fill="url(#gold)"/><ellipse cx="70" cy="112" rx="20" ry="11" fill="#ffd27a" opacity=".85"/><circle cx="70" cy="112" r="11" fill="#ffe3a4"/><path d="M20 310H120" stroke="#b4874c" stroke-width="8"/></g><g transform="translate(1180 545)"><rect x="0" y="0" width="190" height="34" rx="7" fill="#402718"/><rect x="22" y="-62" width="140" height="62" rx="5" fill="#59351f"/><rect x="45" y="-122" width="96" height="60" rx="5" fill="#6e4325"/><rect x="63" y="-168" width="66" height="46" rx="4" fill="#8a5a2e"/><path d="M20 12h150" stroke="#d39a45" stroke-width="3" opacity=".65"/></g><text x="90" y="820" fill="#d8a252" font-family="Georgia,serif" font-size="22" letter-spacing="7">THE SPIRIT &amp; LIFE LIBRARY</text></svg>